# Blender v2.92.0 OBJ File: ''
# www.blender.org
mtllib mesh.mtl
o mesh
v 0.123663 1.407718 0.283847
v 0.123663 1.407718 -0.283847
v 0.482031 -0.592281 -0.283847
v 0.482031 -0.592282 0.283847
v -0.666982 -0.579623 0.283847
v -0.666982 -0.579622 -0.283847
v 0.061288 -0.235814 -0.283847
v 0.061288 -0.235815 0.283847
vt 0.141923 0.473101
vt 0.141923 -0.542826
vt -0.141923 -0.542826
vt -0.141923 0.473101
vt 0.281797 0.141923
vt 0.281797 -0.141923
vt -0.292744 -0.141923
vt -0.292744 0.141923
vt 0.076882 -0.321766
vt 0.108069 0.500000
vt 0.287253 -0.500000
vt -0.287253 -0.493670
vt -0.076882 -0.321766
vt 0.287253 -0.493670
vt -0.287253 -0.500000
vt -0.108069 0.500000
vt 0.141923 -0.570238
vt -0.141923 -0.570238
vt -0.141923 -0.226089
vt 0.141923 -0.226089
vt -0.141923 0.476749
vt 0.141923 0.476749
vn 0.9843 0.1764 0.0000
vn -0.0110 -0.9999 -0.0000
vn -0.0000 0.0000 -1.0000
vn 0.0000 -0.0000 1.0000
vn -0.4269 0.9043 0.0000
vn -0.9993 0.0379 0.0000
usemtl ProBuilderDefault
s 1
f 1/1/1 4/2/1 3/3/1 2/4/1
f 5/5/2 6/6/2 3/7/2 4/8/2
f 7/9/3 2/10/3 3/11/3 6/12/3
f 8/13/4 5/14/4 4/15/4 1/16/4
f 6/17/5 5/18/5 8/19/5 7/20/5
f 7/20/6 8/19/6 1/21/6 2/22/6
